<svg xmlns="http://www.w3.org/2000/svg" viewBox="0 0 49.38 57.66"><defs><style>.cls-1,.cls-2,.cls-3{fill:#fff;}.cls-1,.cls-3{stroke:#fff;}.cls-1{stroke-miterlimit:10;}.cls-3{stroke-linecap:round;stroke-linejoin:round;}</style></defs><title>Admin_1</title><g id="Layer_2" data-name="Layer 2"><g id="Layer_1-2" data-name="Layer 1"><path class="cls-1" d="M30.89,56.05H5A4.45,4.45,0,0,1,.5,51.61V5A4.46,4.46,0,0,1,5,.5H35.69A4.46,4.46,0,0,1,40.15,5V17.37h-.5V5a4,4,0,0,0-4-3.95H5A4,4,0,0,0,1,5V51.61a4,4,0,0,0,4,3.94H30.89Z"/><rect class="cls-1" x="16.37" y="34.87" width="8.93" height="0.5"/><path class="cls-2" d="M10.2,37.65H7.64A1.26,1.26,0,0,1,6.39,36.4V33.84a1.26,1.26,0,0,1,1.25-1.25H10.2a1.25,1.25,0,0,1,1.25,1.25V36.4A1.25,1.25,0,0,1,10.2,37.65ZM7.64,33.09a.76.76,0,0,0-.75.75V36.4a.76.76,0,0,0,.75.75H10.2A.76.76,0,0,0,11,36.4V33.84a.76.76,0,0,0-.75-.75Z"/><path class="cls-2" d="M10.2,32.59H7.64a1.26,1.26,0,0,0-1.25,1.25V36.4a1.26,1.26,0,0,0,1.25,1.25H10.2a1.25,1.25,0,0,0,1.25-1.25V33.84a1.25,1.25,0,0,0-1.25-1.25ZM7.64,37.15a.76.76,0,0,1-.75-.75V33.84a.76.76,0,0,1,.75-.75H10.2a.76.76,0,0,1,.75.75V36.4a.76.76,0,0,1-.75.75Z"/><path class="cls-2" d="M10.2,45H7.64a1.26,1.26,0,0,1-1.25-1.25V41.16a1.26,1.26,0,0,1,1.25-1.25H10.2a1.25,1.25,0,0,1,1.25,1.25v2.56A1.25,1.25,0,0,1,10.2,45ZM7.64,40.41a.76.76,0,0,0-.75.75v2.56a.76.76,0,0,0,.75.75H10.2a.76.76,0,0,0,.75-.75V41.16a.76.76,0,0,0-.75-.75Z"/><path class="cls-2" d="M10.2,39.91H7.64a1.26,1.26,0,0,0-1.25,1.25v2.56A1.26,1.26,0,0,0,7.64,45H10.2a1.25,1.25,0,0,0,1.25-1.25V41.16a1.25,1.25,0,0,0-1.25-1.25ZM7.64,44.47a.76.76,0,0,1-.75-.75V41.16a.76.76,0,0,1,.75-.75H10.2a.76.76,0,0,1,.75.75v2.56a.76.76,0,0,1-.75.75Z"/><rect class="cls-1" x="16.37" y="27.55" width="11.87" height="0.5"/><path class="cls-2" d="M9,29a.26.26,0,0,1-.18-.07L7.38,27.44a.25.25,0,0,1,0-.36.26.26,0,0,1,.35,0L9,28.36l3.26-3.26a.25.25,0,0,1,.36,0,.26.26,0,0,1,0,.35L9.19,28.89A.26.26,0,0,1,9,29Z"/><path class="cls-2" d="M13,25.8h0M12.45,25a.27.27,0,0,0-.18.08L9,28.36,7.73,27.08A.28.28,0,0,0,7.56,27a.29.29,0,0,0-.18.07.25.25,0,0,0,0,.36l1.45,1.45a.27.27,0,0,0,.36,0l3.44-3.44a.26.26,0,0,0,0-.35.27.27,0,0,0-.18-.08Z"/><path class="cls-2" d="M11.62,26.6l-.48.48v2a.76.76,0,0,1-.75.75H7.83a.76.76,0,0,1-.75-.75V26.52a.76.76,0,0,1,.75-.75h2.56a.68.68,0,0,1,.69.37l.37-.37a1.18,1.18,0,0,0-1.06-.5H7.83a1.25,1.25,0,0,0-1.25,1.25v2.56a1.25,1.25,0,0,0,1.25,1.25h2.56a1.25,1.25,0,0,0,1.25-1.25V26.73A.3.3,0,0,0,11.62,26.6Z"/><path class="cls-2" d="M10.39,25.27H7.83a1.25,1.25,0,0,0-1.25,1.25v2.56a1.25,1.25,0,0,0,1.25,1.25h2.56a1.25,1.25,0,0,0,1.25-1.25V26.73a.3.3,0,0,0,0-.13l-.48.48v2a.76.76,0,0,1-.75.75H7.83a.76.76,0,0,1-.75-.75V26.52a.76.76,0,0,1,.75-.75h2.56a.68.68,0,0,1,.69.37l.37-.37a1.18,1.18,0,0,0-1.06-.5Z"/><rect class="cls-1" x="16.37" y="20.23" width="13.31" height="0.5"/><path class="cls-2" d="M9,21.65a.25.25,0,0,1-.18-.08L7.38,20.12a.25.25,0,1,1,.35-.35L9,21l3.26-3.26a.25.25,0,0,1,.36,0,.26.26,0,0,1,0,.35L9.19,21.57A.25.25,0,0,1,9,21.65Z"/><path class="cls-2" d="M13,18.48h0m-.53-.78a.27.27,0,0,0-.18.08L9,21,7.73,19.77a.25.25,0,0,0-.17-.08.25.25,0,0,0-.18.08.24.24,0,0,0,0,.35l1.45,1.45a.24.24,0,0,0,.36,0l3.44-3.44a.26.26,0,0,0,0-.35.27.27,0,0,0-.18-.08Z"/><path class="cls-2" d="M11.62,19.28l-.48.48v2a.76.76,0,0,1-.75.75H7.83a.76.76,0,0,1-.75-.75V19.2a.76.76,0,0,1,.75-.75h2.56a.68.68,0,0,1,.69.37l.37-.37a1.18,1.18,0,0,0-1.06-.5H7.83A1.25,1.25,0,0,0,6.58,19.2v2.56A1.25,1.25,0,0,0,7.83,23h2.56a1.25,1.25,0,0,0,1.25-1.25V19.41A.3.3,0,0,0,11.62,19.28Z"/><path class="cls-2" d="M10.39,18H7.83A1.25,1.25,0,0,0,6.58,19.2v2.56A1.25,1.25,0,0,0,7.83,23h2.56a1.25,1.25,0,0,0,1.25-1.25V19.41a.3.3,0,0,0,0-.13l-.48.48v2a.76.76,0,0,1-.75.75H7.83a.76.76,0,0,1-.75-.75V19.2a.76.76,0,0,1,.75-.75h2.56a.68.68,0,0,1,.69.37l.37-.37a1.18,1.18,0,0,0-1.06-.5Z"/><rect class="cls-1" x="16.37" y="42.19" width="8.72" height="0.5"/><rect class="cls-1" x="9.46" y="10.19" width="24.15" height="1"/><path class="cls-3" d="M48.87,35.93a2.27,2.27,0,0,0-2.06-2.3h-18a1.91,1.91,0,0,0-1.46.73,2.68,2.68,0,0,0-.61,1.73v3.35l0,12.93a.5.5,0,0,0,0,.12,1.83,1.83,0,0,0,1.72,1.24h.15a1.82,1.82,0,0,0,1.73-1.28.37.37,0,0,0,0-.11V38.53h.41V55.67a1.51,1.51,0,0,0,1.5,1.49h11a1.5,1.5,0,0,0,1.51-1.49V38.53h.42V52.34a.36.36,0,0,0,0,.11A1.81,1.81,0,0,0,47,53.73h.13a1.82,1.82,0,0,0,1.77-1.42V35.9S48.88,35.93,48.87,35.93Zm-.35,16.34a1.46,1.46,0,0,1-1.41,1.1H47a1.43,1.43,0,0,1-1.38-1V38.53a.37.37,0,0,0-.37-.36h-.42a.36.36,0,0,0-.36.36V55.67a1.14,1.14,0,0,1-1.15,1.12h-11a1.13,1.13,0,0,1-1.13-1.12V38.53a.37.37,0,0,0-.37-.36h-.41a.36.36,0,0,0-.36.36V52.35a1.44,1.44,0,0,1-1.38,1h-.15a1.45,1.45,0,0,1-1.37-1v-16a.25.25,0,0,0,0-.08v-.22a2.35,2.35,0,0,1,.52-1.49A1.56,1.56,0,0,1,28.8,34h18a1.92,1.92,0,0,1,1.7,2,.07.07,0,0,0,0,0Z"/><path class="cls-1" d="M37.94,32.9a8,8,0,1,1,8-7.95A8,8,0,0,1,37.94,32.9Zm0-15.4A7.45,7.45,0,1,0,45.39,25,7.46,7.46,0,0,0,37.94,17.5Z"/><path class="cls-1" d="M39,33.69H36.14a.26.26,0,0,0-.23.15.39.39,0,0,0,0,.32l.57,2.14a.3.3,0,0,0,.27.24h1.71a.3.3,0,0,0,.27-.24l.57-2.14a.44.44,0,0,0,0-.32.26.26,0,0,0-.23-.15Zm-2.08,2.14-.38-1.43h2.06l-.38,1.43Z"/><path class="cls-1" d="M36.92,36.24h0m1.5-.41h-.07a.36.36,0,0,0-.21.43l1.1,5.86-1.68,2.1-1.68-2.1L37,36.27a.36.36,0,0,0-.22-.43h-.06a.31.31,0,0,0-.28.27l-1.14,6.06a.41.41,0,0,0,.08.33l2,2.5a.26.26,0,0,0,.41,0l2-2.5a.42.42,0,0,0,.08-.33L38.7,36.1a.32.32,0,0,0-.28-.27Z"/></g></g></svg>