<svg xmlns="http://www.w3.org/2000/svg" viewBox="0 0 56.68 57.02"><defs><style>.cls-1,.cls-2{fill:#fff;stroke:#fff;}.cls-1{stroke-miterlimit:10;}.cls-2{stroke-linecap:round;stroke-linejoin:round;}</style></defs><title>Case_1</title><g id="Layer_2" data-name="Layer 2"><g id="Layer_1-2" data-name="Layer 1"><path class="cls-1" d="M51.93,56.52H4.75A4.26,4.26,0,0,1,.5,52.27V19.94a4.26,4.26,0,0,1,4.25-4.25H51.93a4.26,4.26,0,0,1,4.25,4.25V52.27A4.26,4.26,0,0,1,51.93,56.52ZM4.75,16.19A3.75,3.75,0,0,0,1,19.94V52.27A3.75,3.75,0,0,0,4.75,56H51.93a3.76,3.76,0,0,0,3.75-3.75V19.94a3.76,3.76,0,0,0-3.75-3.75Z"/><path class="cls-1" d="M.78,19.72a.25.25,0,0,1-.25-.25V3.4A2.78,2.78,0,0,1,3.33.64H22.69a.25.25,0,1,1,0,.5H3.33A2.29,2.29,0,0,0,1,3.4V19.47A.25.25,0,0,1,.78,19.72Z"/><path class="cls-1" d="M47.6,16.19a.25.25,0,0,1-.25-.25V11.7a.85.85,0,0,0-.84-.84h-17a.25.25,0,0,1,0-.5h17a1.34,1.34,0,0,1,1.34,1.34v4.24A.25.25,0,0,1,47.6,16.19Z"/><rect class="cls-1" x="25.84" y="-0.24" width="0.5" height="11.96" transform="translate(1.41 15.96) rotate(-34.9)"/><path class="cls-1" d="M28.32,24.8a2.53,2.53,0,1,1,2.53-2.52A2.52,2.52,0,0,1,28.32,24.8Zm0-4.55a2,2,0,1,0,2,2A2,2,0,0,0,28.32,20.25Z"/><path class="cls-2" d="M28.32,28l2.41,17.48H25.91L28.32,28m0-3.66-3,21.64h6l-3-21.64Z"/><path class="cls-1" d="M38.23,24.89H18.42a.25.25,0,0,1-.25-.25.25.25,0,0,1,.25-.25H38.23a.25.25,0,0,1,.25.25A.26.26,0,0,1,38.23,24.89Z"/><path class="cls-1" d="M19.49,25.13h0m-.27.7,1.58,4.08H17.65l1.57-4.08m0-1A.19.19,0,0,0,19,25l-2,5.17a.22.22,0,0,0,.2.29h4a.21.21,0,0,0,.19-.29l-2-5.17a.21.21,0,0,0-.2-.13Z"/><path class="cls-1" d="M19.33,35.45a4,4,0,0,1-4-4A1.45,1.45,0,0,1,16.76,30h5a1.45,1.45,0,0,1,1.45,1.45v.08A3.94,3.94,0,0,1,19.33,35.45Zm-2.57-5a1,1,0,0,0-1,1A3.52,3.52,0,0,0,19.33,35a3.44,3.44,0,0,0,3.43-3.43v-.08a1,1,0,0,0-1-1Z"/><path class="cls-1" d="M37.6,25.13h0m-.27.7,1.57,4.08H35.75l1.58-4.08m0-1a.21.21,0,0,0-.2.13l-2,5.17a.21.21,0,0,0,.19.29h4a.22.22,0,0,0,.2-.29l-2-5.17a.19.19,0,0,0-.19-.13Z"/><path class="cls-1" d="M37.43,35.45a4,4,0,0,1-4-4A1.45,1.45,0,0,1,34.87,30h5a1.45,1.45,0,0,1,1.45,1.45v.08A3.93,3.93,0,0,1,37.43,35.45Zm-2.56-5a.94.94,0,0,0-.95,1A3.51,3.51,0,0,0,37.43,35a3.44,3.44,0,0,0,3.43-3.43v-.08a.94.94,0,0,0-1-1Z"/><path class="cls-1" d="M33.65,50.66H23.32a.25.25,0,0,1-.25-.25V46.7a1.12,1.12,0,0,1,1.11-1.12h8.61A1.12,1.12,0,0,1,33.9,46.7v3.71A.25.25,0,0,1,33.65,50.66Zm-10.08-.5H33.4V46.7a.61.61,0,0,0-.61-.62H24.18a.61.61,0,0,0-.61.62Z"/><path class="cls-1" d="M36.61,50.77H20a.25.25,0,0,1,0-.5H36.61a.25.25,0,0,1,0,.5Z"/></g></g></svg>