<svg xmlns="http://www.w3.org/2000/svg" viewBox="0 0 40.94 56.97"><defs><style>.cls-1,.cls-2{fill:#fff;}.cls-1{stroke:#fff;stroke-miterlimit:10;}</style></defs><title>Checklist_1</title><g id="Layer_2" data-name="Layer 2"><g id="Layer_1-2" data-name="Layer 1"><path class="cls-1" d="M36,56.47H5A4.49,4.49,0,0,1,.5,52V5A4.49,4.49,0,0,1,5,.5H36A4.49,4.49,0,0,1,40.44,5V52A4.49,4.49,0,0,1,36,56.47ZM5,1A4,4,0,0,0,1,5V52a4,4,0,0,0,4,4H36a4,4,0,0,0,4-4V5a4,4,0,0,0-4-4Z"/><rect class="cls-1" x="15.65" y="33.87" width="19.06" height="0.5"/><path class="cls-2" d="M9.49,36.65H6.93A1.25,1.25,0,0,1,5.68,35.4V32.85A1.25,1.25,0,0,1,6.93,31.6H9.49a1.26,1.26,0,0,1,1.25,1.25V35.4A1.26,1.26,0,0,1,9.49,36.65ZM6.93,32.1a.75.75,0,0,0-.75.75V35.4a.76.76,0,0,0,.75.75H9.49a.76.76,0,0,0,.75-.75V32.85a.75.75,0,0,0-.75-.75Z"/><path class="cls-2" d="M9.49,31.6H6.93a1.25,1.25,0,0,0-1.25,1.25V35.4a1.25,1.25,0,0,0,1.25,1.25H9.49a1.26,1.26,0,0,0,1.25-1.25V32.85A1.26,1.26,0,0,0,9.49,31.6ZM6.93,36.15a.76.76,0,0,1-.75-.75V32.85a.75.75,0,0,1,.75-.75H9.49a.75.75,0,0,1,.75.75V35.4a.76.76,0,0,1-.75.75Z"/><rect class="cls-1" x="15.65" y="41.19" width="19.06" height="0.5"/><path class="cls-2" d="M9.49,44H6.93a1.25,1.25,0,0,1-1.25-1.25V40.17a1.25,1.25,0,0,1,1.25-1.25H9.49a1.26,1.26,0,0,1,1.25,1.25v2.55A1.26,1.26,0,0,1,9.49,44ZM6.93,39.42a.75.75,0,0,0-.75.75v2.55a.76.76,0,0,0,.75.75H9.49a.76.76,0,0,0,.75-.75V40.17a.75.75,0,0,0-.75-.75Z"/><path class="cls-2" d="M9.49,38.92H6.93a1.25,1.25,0,0,0-1.25,1.25v2.55A1.25,1.25,0,0,0,6.93,44H9.49a1.26,1.26,0,0,0,1.25-1.25V40.17a1.26,1.26,0,0,0-1.25-1.25ZM6.93,43.47a.76.76,0,0,1-.75-.75V40.17a.75.75,0,0,1,.75-.75H9.49a.75.75,0,0,1,.75.75v2.55a.76.76,0,0,1-.75.75Z"/><rect class="cls-1" x="15.65" y="26.55" width="19.06" height="0.5"/><path class="cls-2" d="M8.3,28a.25.25,0,0,1-.18-.08L6.67,26.44A.25.25,0,0,1,7,26.09L8.3,27.36l3.26-3.26a.25.25,0,0,1,.36,0,.26.26,0,0,1,0,.35L8.47,27.89A.23.23,0,0,1,8.3,28Z"/><path class="cls-2" d="M11.74,24a.24.24,0,0,0-.18.07L8.3,27.36,7,26.09A.24.24,0,0,0,6.84,26a.23.23,0,0,0-.17.07.24.24,0,0,0,0,.35l1.45,1.45A.25.25,0,0,0,8.3,28a.23.23,0,0,0,.17-.08l3.45-3.44a.26.26,0,0,0,0-.35.26.26,0,0,0-.18-.07Z"/><path class="cls-2" d="M10.91,25.6l-.48.48v2a.76.76,0,0,1-.75.75H7.12a.76.76,0,0,1-.75-.75V25.52a.76.76,0,0,1,.75-.75H9.68a.68.68,0,0,1,.69.38l.37-.37a1.19,1.19,0,0,0-1.06-.51H7.12a1.25,1.25,0,0,0-1.25,1.25v2.56a1.25,1.25,0,0,0,1.25,1.25H9.68a1.25,1.25,0,0,0,1.25-1.25V25.73A.3.3,0,0,0,10.91,25.6Z"/><path class="cls-2" d="M9.68,24.27H7.12a1.25,1.25,0,0,0-1.25,1.25v2.56a1.25,1.25,0,0,0,1.25,1.25H9.68a1.25,1.25,0,0,0,1.25-1.25V25.73a.3.3,0,0,0,0-.13l-.48.48v2a.76.76,0,0,1-.75.75H7.12a.76.76,0,0,1-.75-.75V25.52a.76.76,0,0,1,.75-.75H9.68a.68.68,0,0,1,.69.38l.37-.37a1.19,1.19,0,0,0-1.06-.51Z"/><rect class="cls-1" x="15.65" y="19.23" width="19.06" height="0.5"/><path class="cls-2" d="M8.3,20.65a.29.29,0,0,1-.18-.07L6.67,19.12A.25.25,0,0,1,7,18.77L8.3,20l3.26-3.26a.25.25,0,0,1,.36,0,.26.26,0,0,1,0,.35L8.47,20.58A.26.26,0,0,1,8.3,20.65Z"/><path class="cls-2" d="M12.27,17.49h0m-.53-.78a.26.26,0,0,0-.18.07L8.3,20,7,18.77a.24.24,0,0,0-.18-.07.23.23,0,0,0-.17.07.24.24,0,0,0,0,.35l1.45,1.46a.29.29,0,0,0,.18.07.26.26,0,0,0,.17-.07l3.45-3.45a.26.26,0,0,0,0-.35.26.26,0,0,0-.18-.07Z"/><path class="cls-2" d="M10.91,18.28l-.48.48v2a.76.76,0,0,1-.75.75H7.12a.76.76,0,0,1-.75-.75V18.2a.76.76,0,0,1,.75-.75H9.68a.68.68,0,0,1,.69.38l.37-.37A1.19,1.19,0,0,0,9.68,17H7.12A1.25,1.25,0,0,0,5.87,18.2v2.56A1.25,1.25,0,0,0,7.12,22H9.68a1.25,1.25,0,0,0,1.25-1.25V18.41A.3.3,0,0,0,10.91,18.28Z"/><path class="cls-2" d="M9.68,17H7.12A1.25,1.25,0,0,0,5.87,18.2v2.56A1.25,1.25,0,0,0,7.12,22H9.68a1.25,1.25,0,0,0,1.25-1.25V18.41a.3.3,0,0,0,0-.13l-.48.48v2a.76.76,0,0,1-.75.75H7.12a.76.76,0,0,1-.75-.75V18.2a.76.76,0,0,1,.75-.75H9.68a.68.68,0,0,1,.69.38l.37-.37A1.19,1.19,0,0,0,9.68,17Z"/><rect class="cls-1" x="8.75" y="9.19" width="24.15" height="1"/></g></g></svg>