<svg xmlns="http://www.w3.org/2000/svg" viewBox="0 0 40.73 56.66"><defs><style>.cls-1,.cls-2,.cls-3{fill:#fff;stroke:#fff;}.cls-1,.cls-3{stroke-miterlimit:10;}.cls-2{stroke-linecap:round;stroke-linejoin:round;}.cls-3{stroke-width:0.5px;}</style></defs><title>Client &amp;amp; Contact_1</title><g id="Layer_2" data-name="Layer 2"><g id="Layer_1-2" data-name="Layer 1"><path class="cls-1" d="M13.62,16.62A5.37,5.37,0,1,1,19,11.25,5.38,5.38,0,0,1,13.62,16.62Zm0-10.24a4.87,4.87,0,1,0,4.88,4.87A4.88,4.88,0,0,0,13.62,6.38Z"/><path class="cls-2" d="M19.52,17.52a1,1,0,0,1,.88,1.06V29.39a.71.71,0,0,1-.67.51h-.1a.7.7,0,0,1-.65-.47V20.29a.5.5,0,0,0-.5-.5h-.29a.5.5,0,0,0-.5.5v11.4a.49.49,0,0,1-.5.49H9.84a.49.49,0,0,1-.5-.49V20.29a.5.5,0,0,0-.5-.5H8.57a.5.5,0,0,0-.5.5v9.14a.71.71,0,0,1-.66.47h-.1a.73.73,0,0,1-.66-.45V18.66A1.27,1.27,0,0,1,7,17.83a.8.8,0,0,1,.59-.31h12m0-.5h-12a1.27,1.27,0,0,0-1,.49,1.74,1.74,0,0,0-.41,1.15v.07a.22.22,0,0,0,0,.08.13.13,0,0,1,0-.06V29.49s0,.05,0,.08a1.23,1.23,0,0,0,1.15.83h.1a1.22,1.22,0,0,0,1.15-.85s0-.05,0-.08V20.29h.27v11.4a1,1,0,0,0,1,1h7.35a1,1,0,0,0,1-1V20.29h.29v9.18a.22.22,0,0,0,0,.08,1.19,1.19,0,0,0,1.14.85h.1a1.21,1.21,0,0,0,1.17-.95V18.53s0,0,0,0A1.51,1.51,0,0,0,19.52,17Z"/><path class="cls-3" d="M14.77,18H11.92a.31.31,0,0,0-.24.12.3.3,0,0,0,0,.26l.57,1.71a.27.27,0,0,0,.27.19H14.2a.29.29,0,0,0,.27-.19L15,18.42a.34.34,0,0,0,0-.26.31.31,0,0,0-.23-.12Zm-2.08,1.71-.38-1.14h2.06L14,19.75Z"/><path class="cls-3" d="M12.7,20.09h0m1.5-.34h-.07a.28.28,0,0,0-.21.34L15,24.79l-1.68,1.68-1.68-1.68,1.1-4.69a.28.28,0,0,0-.21-.34h-.06a.29.29,0,0,0-.28.22l-1.14,4.85a.28.28,0,0,0,.07.26l2,2a.29.29,0,0,0,.4,0l2-2a.26.26,0,0,0,.07-.26L14.47,20a.28.28,0,0,0-.27-.22Z"/><rect class="cls-1" x="5.15" y="38.36" width="17.46" height="0.5"/><rect class="cls-1" x="26.22" y="38.36" width="8.54" height="0.5"/><rect class="cls-1" x="5.15" y="42.36" width="17.46" height="0.5"/><rect class="cls-1" x="26.22" y="42.36" width="8.54" height="0.5"/><path class="cls-1" d="M36.07,56.16H7.57a4.13,4.13,0,0,1-3.95-3L4.1,53a3.62,3.62,0,0,0,3.47,2.63h28.5a3.72,3.72,0,0,0,3.66-3.77V7.21c0-1.09-.24-3-1.83-3.57L38,3.42V3.15l.09,0c1.4.49,2.17,1.93,2.17,4V51.89A4.22,4.22,0,0,1,36.07,56.16Z"/><path class="cls-1" d="M1,5H.5V4.75A4.26,4.26,0,0,1,4.76.5H5V1H4.76A3.77,3.77,0,0,0,1,4.75Z"/><rect class="cls-1" x="5.15" y="46.36" width="17.46" height="0.5"/><rect class="cls-1" x="26.22" y="46.36" width="8.54" height="0.5"/><path class="cls-1" d="M1,5H.5A4.49,4.49,0,0,1,5,.5V1A4,4,0,0,0,1,5Z"/><path class="cls-1" d="M34.2,53.46H4.77A4.27,4.27,0,0,1,.5,49.19V4.77A4.27,4.27,0,0,1,4.77.5H34.2a4.27,4.27,0,0,1,4.27,4.27V49.19A4.27,4.27,0,0,1,34.2,53.46ZM4.77,1A3.77,3.77,0,0,0,1,4.77V49.19A3.77,3.77,0,0,0,4.77,53H34.2A3.77,3.77,0,0,0,38,49.19V4.77A3.77,3.77,0,0,0,34.2,1Z"/></g></g></svg>