<svg xmlns="http://www.w3.org/2000/svg" viewBox="0 0 49.73 57.27"><defs><style>.cls-1{fill:#fff;stroke:#fff;stroke-miterlimit:10;}</style></defs><title>Continous Monitoring_1</title><g id="Layer_2" data-name="Layer 2"><g id="Layer_1-2" data-name="Layer 1"><path class="cls-1" d="M30.3,38.36A18.93,18.93,0,1,1,49.23,19.43,18.95,18.95,0,0,1,30.3,38.36ZM30.3,1A18.43,18.43,0,1,0,48.73,19.43,18.45,18.45,0,0,0,30.3,1Z"/><path class="cls-1" d="M3.05,56.77a2.52,2.52,0,0,1-1.53-.52,2.49,2.49,0,0,1-1-1.68A2.53,2.53,0,0,1,1,52.67L16.52,32.1l.4.3L1.41,53A2,2,0,0,0,1,54.5a2,2,0,0,0,.8,1.35,2.08,2.08,0,0,0,1.23.42,2,2,0,0,0,1.65-.82L20.07,35l.4.3L5.1,55.75A2.53,2.53,0,0,1,3.05,56.77Z"/><rect class="cls-1" x="23.39" y="10.77" width="13.7" height="0.5"/><rect class="cls-1" x="23.39" y="14.17" width="13.7" height="0.5"/><rect class="cls-1" x="23.39" y="17.56" width="13.7" height="0.5"/><rect class="cls-1" x="23.39" y="20.95" width="13.7" height="0.5"/><rect class="cls-1" x="23.39" y="24.34" width="13.7" height="0.5"/><rect class="cls-1" x="23.39" y="27.74" width="13.7" height="0.5"/><rect class="cls-1" x="41.98" y="11.77" width="5.47" height="0.5"/><rect class="cls-1" x="41.98" y="14.56" width="6.42" height="0.5"/><rect class="cls-1" x="41.98" y="17.35" width="6.84" height="0.5"/><rect class="cls-1" x="41.98" y="20.14" width="6.84" height="0.5"/><rect class="cls-1" x="41.98" y="22.93" width="6.84" height="0.5"/><rect class="cls-1" x="41.98" y="25.71" width="5.83" height="0.5"/><rect class="cls-1" x="13.13" y="11.83" width="5.3" height="0.5"/><rect class="cls-1" x="12.18" y="14.62" width="6.25" height="0.5"/><rect class="cls-1" x="11.59" y="17.41" width="6.84" height="0.5"/><rect class="cls-1" x="11.59" y="20.2" width="6.84" height="0.5"/><rect class="cls-1" x="12.01" y="22.98" width="6.42" height="0.5"/><rect class="cls-1" x="12.82" y="25.77" width="5.61" height="0.5"/><rect class="cls-1" x="-1.83" y="44.85" width="23.51" height="0.5" transform="translate(-31.99 25.71) rotate(-52.77)"/></g></g></svg>