<svg xmlns="http://www.w3.org/2000/svg" viewBox="0 0 74.6 56.45"><defs><style>.cls-1{fill:#fff;stroke:#fff;stroke-linecap:round;stroke-linejoin:round;}</style></defs><title>HR_1</title><g id="Layer_2" data-name="Layer 2"><g id="Layer_1-2" data-name="Layer 1"><path class="cls-1" d="M19.67,27.9V50.48a.45.45,0,0,0,0,.16v.75a1.14,1.14,0,0,1-1.14,1.12h-12A1.13,1.13,0,0,1,5.4,51.39V32.73a.5.5,0,0,0-.5-.5H4.45a.5.5,0,0,0-.5.5v15a1.47,1.47,0,0,1-1.4,1H2.39a1.49,1.49,0,0,1-1.39-1V30.47a.65.65,0,0,0,0-.2,1.34,1.34,0,0,1,0-.2,2.42,2.42,0,0,1,.54-1.56,1.56,1.56,0,0,1,1.21-.61H19.67m.5-.5H2.76a2.07,2.07,0,0,0-1.59.79,2.92,2.92,0,0,0-.66,1.88,2.26,2.26,0,0,0,0,.26.39.39,0,0,1,0-.15V47.86a2,2,0,0,0,1.89,1.42h.16a2,2,0,0,0,1.9-1.45V32.73H4.9V51.39A1.63,1.63,0,0,0,6.53,53h12a1.63,1.63,0,0,0,1.64-1.62v-.91h0V27.4Z"/><path class="cls-1" d="M12.72,26.58a8.64,8.64,0,1,1,8.63-8.64A8.65,8.65,0,0,1,12.72,26.58Zm0-16.77a8.14,8.14,0,1,0,8.13,8.13A8.14,8.14,0,0,0,12.72,9.81Z"/><path class="cls-1" d="M49.88,23.91a2.65,2.65,0,0,1,2.35,2.7s0,.05,0,.08v22.5a2,2,0,0,1-1.94,1.52h-.19a2,2,0,0,1-1.91-1.42V30.19a.5.5,0,0,0-.5-.5h-.59a.5.5,0,0,0-.5.5v23.7A1.57,1.57,0,0,1,45,55.45H29.74a1.57,1.57,0,0,1-1.57-1.56V30.19a.5.5,0,0,0-.5-.5H27.1a.5.5,0,0,0-.5.5V49.3a2,2,0,0,1-1.91,1.41h-.21a2,2,0,0,1-1.9-1.38l0-22.11a.49.49,0,0,0,0-.12V27s0-.06,0-.09v-.14a3.21,3.21,0,0,1,.73-2.07A2.11,2.11,0,0,1,25,23.91H49.88m0-.5H25a2.64,2.64,0,0,0-2,1,3.71,3.71,0,0,0-.84,2.39V27c0,.06,0,.11,0,.18a.66.66,0,0,0,0-.14l0,22.34a.45.45,0,0,0,0,.16,2.52,2.52,0,0,0,2.37,1.72h.21a2.5,2.5,0,0,0,2.39-1.77.39.39,0,0,0,0-.15V30.19h.57v23.7A2.07,2.07,0,0,0,29.74,56H45a2.07,2.07,0,0,0,2.08-2.06V30.19h.59v19.1a.77.77,0,0,0,0,.15,2.52,2.52,0,0,0,2.39,1.77h.19a2.51,2.51,0,0,0,2.44-2V26.54s0,0,0,.05a3.13,3.13,0,0,0-2.85-3.18Z"/><path class="cls-1" d="M37.61,22.3a10.9,10.9,0,1,1,10.9-10.9A10.91,10.91,0,0,1,37.61,22.3Zm0-21.3A10.4,10.4,0,1,0,48,11.4,10.42,10.42,0,0,0,37.61,1Z"/><path class="cls-1" d="M65.07,52.51a.25.25,0,0,0-.25.25.25.25,0,0,0,.5,0,.24.24,0,0,0-.24-.25h0"/><path class="cls-1" d="M62.06,52.51a.25.25,0,0,0-.25.25.25.25,0,0,0,.5,0,.24.24,0,0,0-.24-.25h0"/><path class="cls-1" d="M59.05,52.51a.25.25,0,0,0-.25.25.25.25,0,1,0,.5,0,.24.24,0,0,0-.24-.25h0"/><path class="cls-1" d="M71.84,27.9a1.56,1.56,0,0,1,1.21.61,2.42,2.42,0,0,1,.54,1.56,1.34,1.34,0,0,1,0,.2.66.66,0,0,0,0,.2V47.78a1.48,1.48,0,0,1-1.39,1h-.16a1.48,1.48,0,0,1-1.4-1v-15a.5.5,0,0,0-.5-.5H69.7a.5.5,0,0,0-.5.5V51.39a1.13,1.13,0,0,1-1.13,1.12H56a1.14,1.14,0,0,1-1.14-1.12v-.74a.51.51,0,0,0,0-.17V27.9H71.84m0-.5H54.43V50.48h0v.91A1.63,1.63,0,0,0,56,53h12a1.63,1.63,0,0,0,1.63-1.62V32.73h.45v15.1a2,2,0,0,0,1.9,1.45h.16a2,2,0,0,0,1.89-1.42V30.18a.39.39,0,0,1,0,.15,2.26,2.26,0,0,0,0-.26,2.92,2.92,0,0,0-.66-1.88,2.07,2.07,0,0,0-1.59-.79Z"/><path class="cls-1" d="M61.88,26.58a8.64,8.64,0,1,1,8.64-8.64A8.65,8.65,0,0,1,61.88,26.58Zm0-16.77A8.14,8.14,0,1,0,70,17.94,8.14,8.14,0,0,0,61.88,9.81Z"/></g></g></svg>