<svg xmlns="http://www.w3.org/2000/svg" viewBox="0 0 40.94 56.97"><defs><style>.cls-1{fill:#fff;stroke:#fff;stroke-miterlimit:10;}</style></defs><title>Invoice_1</title><g id="Layer_2" data-name="Layer 2"><g id="Layer_1-2" data-name="Layer 1"><path class="cls-1" d="M36,56.47H5A4.49,4.49,0,0,1,.5,52V5A4.49,4.49,0,0,1,5,.5H36A4.49,4.49,0,0,1,40.44,5V52A4.49,4.49,0,0,1,36,56.47ZM5,1A4,4,0,0,0,1,5V52a4,4,0,0,0,4,4H36a4,4,0,0,0,4-4V5a4,4,0,0,0-4-4Z"/><rect class="cls-1" x="23.55" y="7.64" width="11.65" height="0.5"/><rect class="cls-1" x="23.55" y="9.64" width="11.65" height="0.5"/><rect class="cls-1" x="23.55" y="11.64" width="11.65" height="0.5"/><rect class="cls-1" x="3" y="18.36" width="19.06" height="0.5"/><rect class="cls-1" x="26" y="18.36" width="9.32" height="0.5"/><rect class="cls-1" x="3" y="22.16" width="19.06" height="0.5"/><rect class="cls-1" x="26" y="22.16" width="9.32" height="0.5"/><rect class="cls-1" x="3" y="25.96" width="19.06" height="0.5"/><rect class="cls-1" x="26" y="25.96" width="9.32" height="0.5"/><rect class="cls-1" x="3" y="29.76" width="19.06" height="0.5"/><rect class="cls-1" x="26" y="29.76" width="9.32" height="0.5"/><rect class="cls-1" x="3" y="33.56" width="19.06" height="0.5"/><rect class="cls-1" x="26" y="33.56" width="9.32" height="0.5"/><rect class="cls-1" x="3" y="37.36" width="19.06" height="0.5"/><rect class="cls-1" x="26" y="37.36" width="9.32" height="0.5"/><rect class="cls-1" x="4" y="10.08" width="14.59" height="0.5"/><rect class="cls-1" x="26.44" y="43.64" width="8.77" height="0.5"/><rect class="cls-1" x="26.44" y="45.64" width="8.77" height="0.5"/><rect class="cls-1" x="26.44" y="47.64" width="8.77" height="0.5"/></g></g></svg>