<svg xmlns="http://www.w3.org/2000/svg" viewBox="0 0 34.61 56.79"><defs><style>.cls-1{fill:#fff;stroke:#fff;stroke-miterlimit:10;}</style></defs><title>Knowledge_1</title><g id="Layer_2" data-name="Layer 2"><g id="Layer_1-2" data-name="Layer 1"><path class="cls-1" d="M26.42,43.49H8.19V39.13A20.64,20.64,0,0,0,3.78,26.68,16.14,16.14,0,0,1,5.57,5.18,16.88,16.88,0,0,1,34.11,16.82h0a16,16,0,0,1-3.47,10.12,20.6,20.6,0,0,0-4.22,12.73ZM8.69,43H25.92V39.67a21.08,21.08,0,0,1,4.32-13,15.48,15.48,0,0,0,3.37-9.8h0A16.39,16.39,0,0,0,5.91,5.54,15.65,15.65,0,0,0,4.18,26.38,21.17,21.17,0,0,1,8.69,39.13Z"/><path class="cls-1" d="M26.36,45.68H8.42a.25.25,0,0,1-.25-.25.25.25,0,0,1,.25-.25H26.36a.25.25,0,0,1,.25.25A.26.26,0,0,1,26.36,45.68Z"/><path class="cls-1" d="M25.85,47.88H8.76a.25.25,0,0,1-.25-.25.25.25,0,0,1,.25-.25H25.85a.25.25,0,0,1,.25.25A.25.25,0,0,1,25.85,47.88Z"/><path class="cls-1" d="M25,50.09H9.58a.25.25,0,1,1,0-.5H25a.25.25,0,0,1,0,.5Z"/><path class="cls-1" d="M17.3,56.29A7.89,7.89,0,0,1,9.94,51l.47-.18a7.29,7.29,0,0,0,13.79,0l.47.18A7.89,7.89,0,0,1,17.3,56.29Z"/><rect class="cls-1" x="15.56" y="17.31" width="0.5" height="25.37" transform="translate(-3.61 2.2) rotate(-7.15)"/><rect class="cls-1" x="6.12" y="29.75" width="25.37" height="0.5" transform="translate(-13.31 44.91) rotate(-82.82)"/><rect class="cls-1" x="11.87" y="16.95" width="10.87" height="0.5"/></g></g></svg>