<svg xmlns="http://www.w3.org/2000/svg" viewBox="0 0 62.26 57.92"><defs><style>.cls-1{fill:#fff;stroke:#fff;stroke-miterlimit:10;}</style></defs><title>Library_1</title><g id="Layer_2" data-name="Layer 2"><g id="Layer_1-2" data-name="Layer 1"><path class="cls-1" d="M12.06,57.37H2.43A1.94,1.94,0,0,1,.5,55.44v-53A1.94,1.94,0,0,1,2.43.55h9.63A1.93,1.93,0,0,1,14,2.48v53A1.93,1.93,0,0,1,12.06,57.37ZM2.43,1.05A1.43,1.43,0,0,0,1,2.48v53a1.44,1.44,0,0,0,1.43,1.43h9.63a1.44,1.44,0,0,0,1.43-1.43v-53a1.43,1.43,0,0,0-1.43-1.43Z"/><path class="cls-1" d="M28.56,57.37H18.93A1.94,1.94,0,0,1,17,55.44v-53A1.94,1.94,0,0,1,18.93.55h9.63a1.93,1.93,0,0,1,1.93,1.93v53A1.93,1.93,0,0,1,28.56,57.37ZM18.93,1.05A1.43,1.43,0,0,0,17.5,2.48v53a1.44,1.44,0,0,0,1.43,1.43h9.63A1.44,1.44,0,0,0,30,55.44v-53a1.43,1.43,0,0,0-1.43-1.43Z"/><path class="cls-1" d="M50.78,57.42A1.93,1.93,0,0,1,49,56.15L30.85,6.39A1.94,1.94,0,0,1,32,3.91L41.06.62a1.88,1.88,0,0,1,1.47.06,2,2,0,0,1,1,1.09L61.64,51.53A1.93,1.93,0,0,1,60.49,54L51.44,57.3A1.92,1.92,0,0,1,50.78,57.42ZM41.72,1a1.37,1.37,0,0,0-.49.09l-9,3.29a1.44,1.44,0,0,0-.86,1.84L49.43,56a1.44,1.44,0,0,0,1.84.85l9-3.29.08.23-.08-.23a1.42,1.42,0,0,0,.8-.74,1.4,1.4,0,0,0,.05-1.1L43.06,1.94a1.39,1.39,0,0,0-.74-.8A1.42,1.42,0,0,0,41.72,1Z"/><path class="cls-1" d="M9.08,12h-4a1.25,1.25,0,0,1-1.25-1.25v-4A1.25,1.25,0,0,1,5.12,5.52h4a1.25,1.25,0,0,1,1.25,1.25v4A1.25,1.25,0,0,1,9.08,12Zm-4-6a.75.75,0,0,0-.75.75v4a.74.74,0,0,0,.75.75h4a.75.75,0,0,0,.75-.75v-4A.76.76,0,0,0,9.08,6Z"/><rect class="cls-1" x="3.64" y="39.99" width="6.55" height="0.5"/><rect class="cls-1" x="3.64" y="43.99" width="6.55" height="0.5"/><rect class="cls-1" x="3.64" y="47.99" width="6.55" height="0.5"/><rect class="cls-1" x="23.61" y="5.77" width="0.5" height="27.25"/><rect class="cls-1" x="20.64" y="39.99" width="6.55" height="0.5"/><rect class="cls-1" x="20.64" y="43.99" width="6.55" height="0.5"/><rect class="cls-1" x="20.64" y="47.99" width="6.55" height="0.5"/><rect class="cls-1" x="32.87" y="9.82" width="13.34" height="0.5" transform="translate(-0.92 15.38) rotate(-21.76)"/><path class="cls-1" d="M40.91,21.54a1.24,1.24,0,0,1-.53-.12,1.22,1.22,0,0,1-.64-.7L38.38,17a1.25,1.25,0,0,1,0-.95,1.33,1.33,0,0,1,.71-.65L42.85,14a1.26,1.26,0,0,1,1.61.74l1.35,3.73a1.25,1.25,0,0,1-.75,1.6l-3.72,1.36A1.25,1.25,0,0,1,40.91,21.54Zm2.37-7.08a.85.85,0,0,0-.26,0L39.3,15.86a.73.73,0,0,0-.42.39.71.71,0,0,0,0,.57l1.36,3.73a.7.7,0,0,0,.39.42.75.75,0,0,0,.57,0l3.72-1.36a.78.78,0,0,0,.43-.39.75.75,0,0,0,0-.57L44,15a.78.78,0,0,0-.39-.43A.71.71,0,0,0,43.28,14.46Z"/><polygon class="cls-1" points="47.56 41.84 47.39 41.37 53.54 39.13 53.72 39.6 47.56 41.84"/><polygon class="cls-1" points="48.93 45.6 48.75 45.13 54.91 42.89 55.08 43.36 48.93 45.6"/><polygon class="cls-1" points="50.29 49.36 50.12 48.89 56.28 46.65 56.45 47.12 50.29 49.36"/></g></g></svg>