<svg xmlns="http://www.w3.org/2000/svg" viewBox="0 0 64.66 57.1"><defs><style>.cls-1{fill:#fff;stroke:#fff;stroke-miterlimit:10;}</style></defs><title>Productivity_1</title><g id="Layer_2" data-name="Layer 2"><g id="Layer_1-2" data-name="Layer 1"><path class="cls-1" d="M12.33,56.6H3a.25.25,0,0,1-.25-.25V30.27A.25.25,0,0,1,3,30h9.38a.25.25,0,0,1,.25.25V56.35A.25.25,0,0,1,12.33,56.6ZM3.2,56.1h8.88V30.52H3.2Z"/><path class="cls-1" d="M29.2,56.6H19.82a.25.25,0,0,1-.25-.25V21.28a.25.25,0,0,1,.25-.25H29.2a.25.25,0,0,1,.25.25V56.35A.25.25,0,0,1,29.2,56.6Zm-9.13-.5H29V21.53H20.07Z"/><path class="cls-1" d="M46.07,56.6H36.69a.25.25,0,0,1-.25-.25V17.09a.25.25,0,0,1,.25-.25h9.38a.25.25,0,0,1,.25.25V56.35A.25.25,0,0,1,46.07,56.6Zm-9.13-.5h8.88V17.34H36.94Z"/><path class="cls-1" d="M63.91,56.6H54.53a.25.25,0,0,1-.25-.25V10.67a.25.25,0,0,1,.25-.25h9.38a.25.25,0,0,1,.25.25V56.35A.25.25,0,0,1,63.91,56.6Zm-9.13-.5h8.88V10.92H54.78Z"/><path class="cls-1" d="M.75,25.64l-.09,0a.25.25,0,0,1-.14-.32l1.24-3.14a1.6,1.6,0,0,1,1.5-1h7.52a1.13,1.13,0,0,0,.72-.27l7.4-6.34A1.62,1.62,0,0,1,20,14.14h8.28a1.13,1.13,0,0,0,.56-.16l7-4.12a1.68,1.68,0,0,1,.82-.22h8.46a1.11,1.11,0,0,0,.66-.22l7.79-5.73a1.56,1.56,0,0,1,.91-.31l8.91-.24h0a.25.25,0,0,1,.25.24.26.26,0,0,1-.24.26l-8.92.24a1.13,1.13,0,0,0-.63.21L46,9.82a1.61,1.61,0,0,1-1,.32H36.61a1.13,1.13,0,0,0-.57.15l-7,4.13a1.64,1.64,0,0,1-.81.22H20a1.08,1.08,0,0,0-.72.27l-7.4,6.34a1.62,1.62,0,0,1-1.05.39H3.26a1.11,1.11,0,0,0-1,.7L1,25.48A.25.25,0,0,1,.75,25.64Z"/><path class="cls-1" d="M59.26,6.34a.25.25,0,0,1-.12-.47l4.25-2.45L59.14,1a.26.26,0,0,1-.09-.35.26.26,0,0,1,.34-.09L64,3.2a.26.26,0,0,1,0,.44L59.39,6.31A.28.28,0,0,1,59.26,6.34Z"/></g></g></svg>