<svg xmlns="http://www.w3.org/2000/svg" viewBox="0 0 40.94 56.97"><defs><style>.cls-1{fill:#fff;stroke:#fff;stroke-miterlimit:10;}</style></defs><title>Project_1</title><g id="Layer_2" data-name="Layer 2"><g id="Layer_1-2" data-name="Layer 1"><path class="cls-1" d="M36,56.47H5A4.49,4.49,0,0,1,.5,52V5A4.49,4.49,0,0,1,5,.5H36A4.49,4.49,0,0,1,40.44,5V52A4.49,4.49,0,0,1,36,56.47ZM5,1A4,4,0,0,0,1,5V52a4,4,0,0,0,4,4H36a4,4,0,0,0,4-4V5a4,4,0,0,0-4-4Z"/><path class="cls-1" d="M36.32,8.74H25.6a.25.25,0,0,1,0-.5H36.32a.25.25,0,0,1,0,.5Z"/><path class="cls-1" d="M36.32,11.91H25.6a.25.25,0,0,1-.25-.25.25.25,0,0,1,.25-.25H36.32a.25.25,0,0,1,.25.25A.26.26,0,0,1,36.32,11.91Z"/><path class="cls-1" d="M36.32,15.07H25.6a.25.25,0,0,1-.25-.25.25.25,0,0,1,.25-.25H36.32a.26.26,0,0,1,.25.25A.25.25,0,0,1,36.32,15.07Z"/><path class="cls-1" d="M5.54,38.62a.23.23,0,0,1-.14,0,.24.24,0,0,1-.07-.34l5.17-7.9a.25.25,0,0,1,.17-.11.23.23,0,0,1,.2.06l5.81,5.08,5.59-7.83a.23.23,0,0,1,.17-.1.27.27,0,0,1,.19,0l8,5.9,5.45-12a.24.24,0,0,1,.33-.12.24.24,0,0,1,.12.33L31,33.87a.25.25,0,0,1-.16.14.23.23,0,0,1-.21,0L22.53,28l-5.61,7.85a.27.27,0,0,1-.17.1.25.25,0,0,1-.2-.06l-5.79-5.07-5,7.65A.26.26,0,0,1,5.54,38.62Z"/><path class="cls-1" d="M12.35,20.42a6.91,6.91,0,0,1,0-13.82,6.7,6.7,0,0,1,3.15.77.25.25,0,0,1-.24.44,6.17,6.17,0,0,0-2.91-.71,6.41,6.41,0,1,0,6.41,6.41,5,5,0,0,0,0-.7.24.24,0,0,1,.22-.27.25.25,0,0,1,.28.21,5.92,5.92,0,0,1,0,.76A6.92,6.92,0,0,1,12.35,20.42Z"/><path class="cls-1" d="M25,54.47H21.81a.25.25,0,0,1-.25-.25V45.45a.25.25,0,0,1,.25-.25H25a.25.25,0,0,1,.25.25v8.77A.25.25,0,0,1,25,54.47ZM22.06,54h2.66V45.7H22.06Z"/><path class="cls-1" d="M30.64,54.47H27.49a.25.25,0,0,1-.25-.25V42.42a.25.25,0,0,1,.25-.25h3.15a.25.25,0,0,1,.25.25v11.8A.25.25,0,0,1,30.64,54.47Zm-2.9-.5h2.65V42.67H27.74Z"/><path class="cls-1" d="M36.32,54.47H33.16a.25.25,0,0,1-.25-.25V41a.25.25,0,0,1,.25-.25h3.16a.26.26,0,0,1,.25.25V54.22A.25.25,0,0,1,36.32,54.47ZM33.41,54h2.66V41.26H33.41Z"/></g></g></svg>