<svg xmlns="http://www.w3.org/2000/svg" viewBox="0 0 40.94 56.97"><defs><style>.cls-1,.cls-2{fill:#fff;}.cls-1{stroke:#fff;stroke-miterlimit:10;}</style></defs><title>Task_1</title><g id="Layer_2" data-name="Layer 2"><g id="Layer_1-2" data-name="Layer 1"><path class="cls-1" d="M36,56.47H5A4.49,4.49,0,0,1,.5,52V5A4.49,4.49,0,0,1,5,.5H36A4.49,4.49,0,0,1,40.44,5V52A4.49,4.49,0,0,1,36,56.47ZM5,1A4,4,0,0,0,1,5V52a4,4,0,0,0,4,4H36a4,4,0,0,0,4-4V5a4,4,0,0,0-4-4Z"/><path class="cls-1" d="M12,18.21a6,6,0,1,1,6-6A6,6,0,0,1,12,18.21Zm0-11.5a5.5,5.5,0,1,0,5.5,5.5A5.5,5.5,0,0,0,12,6.71Z"/><path class="cls-1" d="M14.8,15.54a.2.2,0,0,1-.13,0l-2.82-1.72a.22.22,0,0,1-.12-.21V9.13a.25.25,0,1,1,.5,0v4.3l2.7,1.64a.26.26,0,0,1,.08.35A.27.27,0,0,1,14.8,15.54Z"/><rect class="cls-1" x="6.23" y="41.19" width="19.06" height="0.5"/><rect class="cls-1" x="6.23" y="27.23" width="19.06" height="0.5"/><rect class="cls-1" x="6.23" y="34.03" width="19.06" height="0.5"/><path class="cls-2" d="M34,36.8H31.45a1.25,1.25,0,0,1-1.25-1.25V33a1.25,1.25,0,0,1,1.25-1.25H34A1.25,1.25,0,0,1,35.25,33v2.55A1.25,1.25,0,0,1,34,36.8Zm-2.55-4.55a.76.76,0,0,0-.75.75v2.55a.75.75,0,0,0,.75.75H34a.74.74,0,0,0,.75-.75V33a.75.75,0,0,0-.75-.75Z"/><path class="cls-2" d="M34,31.75H31.45A1.25,1.25,0,0,0,30.2,33v2.55a1.25,1.25,0,0,0,1.25,1.25H34a1.25,1.25,0,0,0,1.25-1.25V33A1.25,1.25,0,0,0,34,31.75ZM31.45,36.3a.75.75,0,0,1-.75-.75V33a.76.76,0,0,1,.75-.75H34a.75.75,0,0,1,.75.75v2.55a.74.74,0,0,1-.75.75Z"/><path class="cls-2" d="M34,44H31.45a1.25,1.25,0,0,1-1.25-1.25V40.17a1.25,1.25,0,0,1,1.25-1.25H34a1.25,1.25,0,0,1,1.25,1.25v2.55A1.25,1.25,0,0,1,34,44Zm-2.55-4.55a.75.75,0,0,0-.75.75v2.55a.76.76,0,0,0,.75.75H34a.75.75,0,0,0,.75-.75V40.17a.74.74,0,0,0-.75-.75Z"/><path class="cls-2" d="M34,38.92H31.45a1.25,1.25,0,0,0-1.25,1.25v2.55A1.25,1.25,0,0,0,31.45,44H34a1.25,1.25,0,0,0,1.25-1.25V40.17A1.25,1.25,0,0,0,34,38.92Zm-2.55,4.55a.76.76,0,0,1-.75-.75V40.17a.75.75,0,0,1,.75-.75H34a.74.74,0,0,1,.75.75v2.55a.75.75,0,0,1-.75.75Z"/><path class="cls-2" d="M32.62,28.65a.28.28,0,0,1-.17-.07L31,27.12a.26.26,0,0,1,0-.35.25.25,0,0,1,.36,0L32.62,28l3.27-3.26a.25.25,0,0,1,.35.35L32.8,28.58A.29.29,0,0,1,32.62,28.65Z"/><path class="cls-2" d="M36.42,25.31h0m-.35-.6a.24.24,0,0,0-.18.07L32.62,28l-1.27-1.27a.27.27,0,0,0-.36,0,.26.26,0,0,0,0,.35l1.46,1.46a.28.28,0,0,0,.17.07.29.29,0,0,0,.18-.07l3.44-3.45a.24.24,0,0,0,0-.35.23.23,0,0,0-.17-.07Z"/><path class="cls-2" d="M35.24,26.28l-.48.48v2a.76.76,0,0,1-.75.75H31.45a.76.76,0,0,1-.75-.75V26.2a.76.76,0,0,1,.75-.75H34a.68.68,0,0,1,.69.38l.37-.37A1.19,1.19,0,0,0,34,25H31.45A1.25,1.25,0,0,0,30.2,26.2v2.56A1.25,1.25,0,0,0,31.45,30H34a1.25,1.25,0,0,0,1.25-1.25V26.41A.3.3,0,0,0,35.24,26.28Z"/><path class="cls-2" d="M34,25H31.45A1.25,1.25,0,0,0,30.2,26.2v2.56A1.25,1.25,0,0,0,31.45,30H34a1.25,1.25,0,0,0,1.25-1.25V26.41a.3.3,0,0,0,0-.13l-.48.48v2a.76.76,0,0,1-.75.75H31.45a.76.76,0,0,1-.75-.75V26.2a.76.76,0,0,1,.75-.75H34a.68.68,0,0,1,.69.38l.37-.37A1.19,1.19,0,0,0,34,25Z"/></g></g></svg>