<svg xmlns="http://www.w3.org/2000/svg" viewBox="0 0 40.94 56.97"><defs><style>.cls-1,.cls-2{fill:#fff;}.cls-1{stroke:#fff;stroke-miterlimit:10;}</style></defs><title>User Management_1</title><g id="Layer_2" data-name="Layer 2"><g id="Layer_1-2" data-name="Layer 1"><path class="cls-1" d="M36,56.47H5A4.49,4.49,0,0,1,.5,52V5A4.49,4.49,0,0,1,5,.5H36A4.49,4.49,0,0,1,40.44,5V52A4.49,4.49,0,0,1,36,56.47ZM5,1A4,4,0,0,0,1,5V52a4,4,0,0,0,4,4H36a4,4,0,0,0,4-4V5a4,4,0,0,0-4-4Z"/><rect class="cls-1" x="15.65" y="33.32" width="19.06" height="0.5"/><rect class="cls-1" x="15.65" y="40.98" width="19.06" height="0.5"/><rect class="cls-1" x="15.65" y="26.16" width="19.06" height="0.5"/><rect class="cls-1" x="15.65" y="19" width="19.06" height="0.5"/><rect class="cls-1" x="8.75" y="9.19" width="24.15" height="1"/><path class="cls-2" d="M10.36,22.1H8.86a.33.33,0,0,1-.33-.33v-.18a.33.33,0,0,1-.17,0A.38.38,0,0,1,8,21.38s0-.05,0-.06v-2.2H8a.52.52,0,0,1,.11-.33.38.38,0,0,1,.29-.14h2.45a.41.41,0,0,1,.4.4,0,0,0,0,1,0,0h0v2.23a.38.38,0,0,1-.37.32.41.41,0,0,1-.19,0v.18A.33.33,0,0,1,10.36,22.1ZM8.6,19.27h.06a.17.17,0,0,1,.17.17v2.33a0,0,0,0,0,0,0h1.5a0,0,0,0,0,0,0V19.44a.17.17,0,0,1,.18-.17h.06a.17.17,0,0,1,.17.17v1.85a.09.09,0,0,0,.15,0V19.1h0c0-.08-.06-.14-.11-.14H8.39a.09.09,0,0,0-.06,0,.21.21,0,0,0-.05.13.08.08,0,0,1,0,.07V21.3a.07.07,0,0,0,.06,0c.05,0,.08,0,.09,0V19.44A.17.17,0,0,1,8.6,19.27Z"/><path class="cls-2" d="M10.84,18.65H8.39a.38.38,0,0,0-.29.14.52.52,0,0,0-.11.33H8v2.2s0,0,0,.06a.38.38,0,0,0,.37.25.33.33,0,0,0,.17,0v.18a.33.33,0,0,0,.33.33h1.5a.33.33,0,0,0,.33-.33v-.18a.41.41,0,0,0,.19,0,.38.38,0,0,0,.37-.32V19.08h0a0,0,0,0,0,0,0,.41.41,0,0,0-.4-.4Zm-2.5,2.68a.07.07,0,0,1-.06,0V19.18a.08.08,0,0,0,0-.07A.21.21,0,0,1,8.33,19a.09.09,0,0,1,.06,0h2.45c.05,0,.1.06.11.14h0v2.19a.1.1,0,0,1-.08,0,.08.08,0,0,1-.07,0V19.44a.17.17,0,0,0-.17-.17h-.06a.17.17,0,0,0-.18.17v2.33a0,0,0,0,1,0,0H8.86a0,0,0,0,1,0,0V19.44a.17.17,0,0,0-.17-.17H8.6a.17.17,0,0,0-.17.17v1.85s0,0-.09,0Z"/><path class="cls-2" d="M9.63,18.79a1.2,1.2,0,1,1,1.2-1.2A1.2,1.2,0,0,1,9.63,18.79Zm0-2.09a.9.9,0,1,0,.9.89A.89.89,0,0,0,9.63,16.7Z"/><path class="cls-2" d="M9.63,16.4a1.2,1.2,0,1,0,1.2,1.19,1.19,1.19,0,0,0-1.2-1.19Zm0,2.09a.9.9,0,1,1,.9-.9.89.89,0,0,1-.9.9Z"/><path class="cls-2" d="M10.36,29.26H8.86a.33.33,0,0,1-.33-.33v-.18a.33.33,0,0,1-.17,0A.38.38,0,0,1,8,28.54s0-.05,0-.06V26.29H8A.52.52,0,0,1,8.1,26a.38.38,0,0,1,.29-.14h2.45a.41.41,0,0,1,.4.4v0h0v2.23a.38.38,0,0,1-.37.32.41.41,0,0,1-.19,0v.18A.33.33,0,0,1,10.36,29.26ZM8.6,26.42h.06a.18.18,0,0,1,.17.18v2.33a0,0,0,0,0,0,0h1.5a0,0,0,0,0,0,0V26.6a.18.18,0,0,1,.18-.18h.06a.18.18,0,0,1,.17.18v1.85a.09.09,0,0,0,.15,0V26.26h0c0-.08-.06-.14-.11-.14H8.39a.09.09,0,0,0-.06,0,.21.21,0,0,0-.05.13.08.08,0,0,1,0,.07v2.12a.09.09,0,0,0,.15,0V26.6A.18.18,0,0,1,8.6,26.42Z"/><path class="cls-2" d="M10.84,25.81H8.39A.38.38,0,0,0,8.1,26a.52.52,0,0,0-.11.33H8v2.19s0,0,0,.06a.38.38,0,0,0,.37.25.33.33,0,0,0,.17,0v.18a.33.33,0,0,0,.33.33h1.5a.33.33,0,0,0,.33-.33v-.18a.41.41,0,0,0,.19,0,.38.38,0,0,0,.37-.32V26.24h0v0a.41.41,0,0,0-.4-.4ZM8.35,28.49a.09.09,0,0,1-.07,0V26.34a.08.08,0,0,0,0-.07.21.21,0,0,1,.05-.13.09.09,0,0,1,.06,0h2.45c.05,0,.1.06.11.14h0v2.19a.1.1,0,0,1-.08,0,.08.08,0,0,1-.07,0V26.6a.18.18,0,0,0-.17-.18h-.06a.18.18,0,0,0-.18.18v2.33a0,0,0,0,1,0,0H8.86a0,0,0,0,1,0,0V26.6a.18.18,0,0,0-.17-.18H8.6a.18.18,0,0,0-.17.18v1.85a.1.1,0,0,1-.08,0Z"/><path class="cls-2" d="M9.63,26a1.2,1.2,0,1,1,1.2-1.2A1.2,1.2,0,0,1,9.63,26Zm0-2.1a.9.9,0,1,0,.9.9A.9.9,0,0,0,9.63,23.85Z"/><path class="cls-2" d="M9.63,23.56a1.2,1.2,0,1,0,1.2,1.19,1.19,1.19,0,0,0-1.2-1.19Zm0,2.09a.9.9,0,1,1,.9-.9.89.89,0,0,1-.9.9Z"/><path class="cls-2" d="M10.36,36.42H8.86a.33.33,0,0,1-.33-.33v-.18a.33.33,0,0,1-.17,0A.38.38,0,0,1,8,35.7s0-.05,0-.06V33.45H8a.52.52,0,0,1,.11-.33A.37.37,0,0,1,8.39,33h2.45a.41.41,0,0,1,.4.4v0h0v2.23a.38.38,0,0,1-.37.32.41.41,0,0,1-.19,0v.18A.33.33,0,0,1,10.36,36.42ZM8.6,33.58h.06a.18.18,0,0,1,.17.18v2.33a0,0,0,0,0,0,0h1.5a0,0,0,0,0,0,0V33.76a.18.18,0,0,1,.18-.18h.06a.18.18,0,0,1,.17.18v1.85a.09.09,0,0,0,.15,0V33.42h0c0-.08-.06-.14-.11-.14H8.39l-.06,0a.21.21,0,0,0-.05.13.08.08,0,0,1,0,.07v2.12a.07.07,0,0,0,.06,0c.05,0,.08,0,.09,0V33.76A.18.18,0,0,1,8.6,33.58Z"/><path class="cls-2" d="M10.84,33H8.39a.37.37,0,0,0-.29.14.52.52,0,0,0-.11.33H8v2.19s0,0,0,.06a.38.38,0,0,0,.37.25.33.33,0,0,0,.17,0v.18a.33.33,0,0,0,.33.33h1.5a.33.33,0,0,0,.33-.33v-.18a.41.41,0,0,0,.19,0,.38.38,0,0,0,.37-.32V33.4h0v0a.41.41,0,0,0-.4-.4Zm-2.5,2.68a.07.07,0,0,1-.06,0V33.5a.08.08,0,0,0,0-.07.21.21,0,0,1,.05-.13l.06,0h2.45c.05,0,.1.06.11.14h0v2.19a.1.1,0,0,1-.08,0,.08.08,0,0,1-.07,0V33.76a.18.18,0,0,0-.17-.18h-.06a.18.18,0,0,0-.18.18v2.33a0,0,0,0,1,0,0H8.86a0,0,0,0,1,0,0V33.76a.18.18,0,0,0-.17-.18H8.6a.18.18,0,0,0-.17.18v1.85s0,0-.09,0Z"/><path class="cls-2" d="M9.63,33.11a1.2,1.2,0,1,1,1.2-1.2A1.2,1.2,0,0,1,9.63,33.11Zm0-2.1a.9.9,0,1,0,.9.9A.9.9,0,0,0,9.63,31Z"/><path class="cls-2" d="M9.63,30.72a1.2,1.2,0,1,0,1.2,1.19,1.19,1.19,0,0,0-1.2-1.19Zm0,2.09a.9.9,0,1,1,.9-.9.89.89,0,0,1-.9.9Z"/><path class="cls-2" d="M10.36,44.08H8.86a.33.33,0,0,1-.33-.33v-.18a.33.33,0,0,1-.17,0A.37.37,0,0,1,8,43.36s0,0,0-.06V41.11H8a.5.5,0,0,1,.11-.33.37.37,0,0,1,.29-.14h2.45a.41.41,0,0,1,.4.4v0h0v2.23a.38.38,0,0,1-.37.32.58.58,0,0,1-.19,0v.18A.33.33,0,0,1,10.36,44.08ZM8.6,41.25h.06a.17.17,0,0,1,.17.17v2.33a0,0,0,0,0,0,0h1.5a0,0,0,0,0,0,0V41.42a.17.17,0,0,1,.18-.17h.06a.17.17,0,0,1,.17.17v1.85c0,.07.13,0,.15,0V41.08h0c0-.08-.06-.14-.11-.14H8.39a.09.09,0,0,0-.06,0,.21.21,0,0,0-.05.13.08.08,0,0,1,0,.07v2.12a.07.07,0,0,0,.06,0c.05,0,.08,0,.09,0V41.42A.17.17,0,0,1,8.6,41.25Z"/><path class="cls-2" d="M10.84,40.63H8.39a.37.37,0,0,0-.29.14A.5.5,0,0,0,8,41.1H8V43.3s0,0,0,.06a.37.37,0,0,0,.37.25.33.33,0,0,0,.17,0v.18a.33.33,0,0,0,.33.33h1.5a.33.33,0,0,0,.33-.33v-.18a.58.58,0,0,0,.19,0,.38.38,0,0,0,.37-.32V41.06h0v0a.41.41,0,0,0-.4-.4Zm-2.5,2.68a.07.07,0,0,1-.06,0V41.16a.08.08,0,0,0,0-.07A.21.21,0,0,1,8.33,41a.09.09,0,0,1,.06,0h2.45c.05,0,.1.06.11.14h0v2.19a.1.1,0,0,1-.08,0,.07.07,0,0,1-.07,0V41.42a.17.17,0,0,0-.17-.17h-.06a.17.17,0,0,0-.18.17v2.33a0,0,0,0,1,0,0H8.86a0,0,0,0,1,0,0V41.42a.17.17,0,0,0-.17-.17H8.6a.17.17,0,0,0-.17.17v1.85s0,0-.09,0Z"/><path class="cls-2" d="M9.63,40.77a1.2,1.2,0,1,1,1.2-1.2A1.2,1.2,0,0,1,9.63,40.77Zm0-2.1a.9.9,0,1,0,.9.9A.9.9,0,0,0,9.63,38.67Z"/><path class="cls-2" d="M9.63,38.38a1.2,1.2,0,1,0,1.2,1.19,1.19,1.19,0,0,0-1.2-1.19Zm0,2.09a.9.9,0,1,1,.9-.9.89.89,0,0,1-.9.9Z"/></g></g></svg>